<?xml version="1.0" standalone="no"?>
<!DOCTYPE svg PUBLIC "-//W3C//DTD SVG 20010904//EN"
 "http://www.w3.org/TR/2001/REC-SVG-20010904/DTD/svg10.dtd">
<svg version="1.0" xmlns="http://www.w3.org/2000/svg"
 width="512.000000pt" height="512.000000pt" viewBox="0 0 512.000000 512.000000"
 preserveAspectRatio="xMidYMid meet">
<metadata>
Created by potrace 1.11, written by Peter Selinger 2001-2013
</metadata>
<g transform="translate(0.000000,512.000000) scale(0.100000,-0.100000)"
fill="#000000" stroke="none">
<path d="M2439 4362 c-106 -35 -183 -106 -232 -212 -16 -34 -21 -67 -21 -135
-1 -79 3 -98 27 -150 15 -33 44 -76 63 -96 l35 -36 -178 -254 c-296 -420 -632
-928 -678 -1024 -43 -90 -86 -219 -100 -302 l-7 -43 -43 59 c-90 123 -252 210
-397 214 -58 2 -63 0 -75 -25 -8 -15 -16 -62 -20 -106 -19 -251 142 -490 385
-571 34 -12 89 -24 121 -28 l59 -6 32 -91 c216 -623 901 -961 1525 -752 187
63 323 145 465 282 142 137 255 316 311 490 l22 72 52 6 c140 16 295 99 376
199 52 65 105 172 120 246 12 57 8 230 -6 264 -4 9 -19 20 -34 24 -39 10 -177
-22 -249 -58 -66 -32 -180 -131 -209 -180 l-17 -29 -22 98 c-42 185 -70 241
-292 572 -113 168 -299 438 -412 600 -114 162 -214 307 -224 322 -17 26 -17
27 20 75 90 117 104 256 39 388 -76 157 -272 241 -436 187z m143 -68 l37 -6
-38 -77 c-33 -65 -44 -78 -75 -89 -104 -38 -77 -192 34 -192 76 0 126 83 90
150 -8 15 -2 36 27 95 21 41 40 75 44 75 18 0 85 -81 107 -128 21 -46 24 -65
20 -126 -6 -87 -31 -139 -93 -194 -130 -115 -321 -90 -420 53 -110 158 -26
380 162 431 58 15 58 15 105 8z m315 -837 c205 -293 493 -720 490 -724 -2 -1
-53 8 -113 22 -428 95 -971 99 -1412 10 -69 -14 -126 -24 -128 -22 -6 6 594
883 637 931 4 4 31 0 60 -9 71 -24 179 -22 244 3 28 11 52 20 55 20 3 1 78
-103 167 -231z m-117 -717 c225 -17 416 -48 610 -101 l79 -21 60 -92 c34 -51
61 -95 61 -98 0 -3 -46 9 -102 27 -420 135 -978 171 -1485 94 -134 -20 -333
-65 -412 -93 -24 -9 -45 -16 -47 -16 -7 0 37 81 73 136 l34 51 127 32 c310 76
671 105 1002 81z m-15 -240 c277 -19 547 -72 765 -149 l105 -37 17 -59 c9 -33
17 -70 17 -82 l1 -22 -61 25 c-34 14 -116 41 -182 60 -563 162 -1325 151
-1859 -27 -65 -21 -120 -39 -122 -39 -9 0 35 145 47 157 18 17 215 77 347 107
292 64 610 87 925 66z m-1695 -242 c134 -64 232 -196 266 -358 26 -126 18
-123 -104 40 -62 83 -120 154 -129 157 -21 8 -47 -9 -50 -33 -2 -11 42 -78
107 -164 79 -105 105 -146 93 -148 -30 -7 -163 69 -217 123 -96 96 -157 258
-142 379 l7 53 52 -9 c29 -5 81 -23 117 -40z m3140 -38 c0 -79 -21 -166 -58
-234 -55 -103 -184 -208 -287 -232 -25 -6 -28 -5 -19 7 84 107 234 311 234
318 0 14 -29 41 -43 41 -21 0 -30 -11 -147 -165 -62 -82 -117 -154 -121 -159
-12 -13 1 113 18 174 37 137 154 258 298 308 72 26 108 31 117 17 4 -5 8 -39
8 -75z m-1260 25 c246 -31 503 -94 665 -164 l70 -29 3 -89 c6 -158 -41 -360
-118 -513 -98 -196 -269 -374 -462 -482 -93 -53 -258 -111 -363 -129 -90 -15
-302 -15 -385 0 -237 45 -444 156 -611 328 -197 203 -302 436 -325 724 -3 48
-4 107 0 132 7 45 7 46 74 71 37 14 71 26 75 26 3 0 16 -19 28 -42 32 -62 127
-151 201 -187 122 -59 138 -53 149 49 13 114 75 227 158 284 31 22 54 27 151
35 158 13 539 5 690 -14z"/>
<path d="M2507 3573 c-2 -4 -5 -32 -6 -62 -3 -97 -19 -179 -40 -208 -21 -28
-21 -36 -15 -197 9 -204 10 -206 107 -206 93 0 94 1 102 205 7 163 6 171 -14
196 -21 27 -39 116 -44 219 l-2 55 -42 3 c-22 2 -43 -1 -46 -5z"/>
<path d="M2855 2136 c-42 -18 -93 -79 -101 -121 -21 -112 58 -205 172 -205 59
0 105 26 142 80 32 47 28 139 -7 189 -43 60 -138 87 -206 57z"/>
<path d="M2194 2012 c-90 -57 -52 -202 52 -202 71 0 114 43 114 115 0 79 -98
130 -166 87z"/>
<path d="M1907 1676 c-133 -48 -201 -198 -147 -324 27 -62 95 -127 149 -142
46 -13 122 -13 155 0 21 8 27 6 36 -9 16 -32 134 -119 202 -151 225 -105 484
-64 667 106 l58 53 71 -6 c54 -4 82 -2 116 11 54 21 112 76 137 130 22 49 25
143 5 190 -36 85 -139 156 -226 155 -208 -1 -325 -243 -193 -400 l26 -30 -49
-45 c-26 -25 -84 -63 -128 -84 -136 -67 -276 -73 -421 -19 -54 20 -153 87
-189 127 -19 21 -19 22 7 59 37 54 47 86 47 149 0 66 -16 108 -61 159 -65 74
-172 103 -262 71z"/>
<path d="M2485 1666 c-43 -19 -94 -74 -107 -117 -12 -43 -5 -84 18 -93 23 -9
54 11 54 35 0 34 29 78 61 95 63 32 127 -3 148 -82 12 -46 32 -60 63 -43 17 9
20 18 15 55 -13 119 -145 197 -252 150z"/>
<path d="M3845 4236 c-132 -59 -118 -247 20 -285 160 -44 258 171 124 272 -34
25 -105 31 -144 13z m99 -87 c31 -24 35 -72 9 -101 -25 -28 -77 -24 -102 8
-27 35 -26 59 4 89 30 30 54 31 89 4z"/>
<path d="M3300 4068 c-132 -67 -132 -249 0 -315 24 -13 60 -23 80 -23 20 0 56
10 80 23 132 66 132 248 0 315 -24 12 -60 22 -80 22 -20 0 -56 -10 -80 -22z
m153 -98 c38 -43 36 -83 -7 -126 -44 -44 -83 -45 -128 -5 -27 24 -33 36 -33
69 0 94 104 132 168 62z"/>
<path d="M3685 3601 c-140 -65 -166 -238 -52 -338 86 -75 208 -66 285 21 53
60 65 141 33 211 -49 105 -167 152 -266 106z m150 -85 c59 -39 67 -133 14
-185 -104 -104 -264 33 -184 156 33 50 116 64 170 29z"/>
</g>
</svg>
